<svg xmlns:dc="http://purl.org/dc/elements/1.1/" xmlns:cc="http://creativecommons.org/ns#" xmlns:rdf="http://www.w3.org/1999/02/22-rdf-syntax-ns#" xmlns:svg="http://www.w3.org/2000/svg" xmlns="http://www.w3.org/2000/svg" xmlns:sodipodi="http://sodipodi.sourceforge.net/DTD/sodipodi-0.dtd" xmlns:inkscape="http://www.inkscape.org/namespaces/inkscape" version="1.1" id="svg32" xml:space="preserve" sodipodi:docname="avatar.svg" inkscape:version="1.0 (4035a4fb49, 2020-05-01)" width="128" height="128" viewBox="0 0 477.46533 597.03772" fill="#808080"><metadata id="metadata38"><rdf:RDF><cc:Work rdf:about=""><dc:format>image/svg+xml</dc:format><dc:type rdf:resource="http://purl.org/dc/dcmitype/StillImage"/><dc:title/></cc:Work></rdf:RDF></metadata><g id="g40" inkscape:groupmode="layer" inkscape:label="avatar" transform="matrix(1.3333333,0,0,-1.3333333,-481.26825,1038.9349)"><g  id="g42"><g  id="g44" clip-path="url(#clipPath48)"><g  id="g50" transform="translate(612.0791,347.7119)"><path d="M 0,0 9.371,31.129 C -3.017,29.19 -15.78,27.682 -28.747,26.587 l -3.754,-38.19 C -21.289,-8.725 -10.432,-4.819 0,0"  id="path52"/></g><g  id="g54" transform="translate(612.0791,347.7119)"><path d="M 0,0 9.371,31.129 C -3.017,29.19 -15.78,27.682 -28.747,26.587 l -3.754,-38.19 C -21.289,-8.725 -10.432,-4.819 0,0 Z"  id="path56"/></g><g  id="g58" transform="translate(471.6362,348.8975)"><path d="M 0,0 C 10.79,-5.601 22.113,-9.912 33.849,-12.788 L 30.528,25.17 C 17.356,26.201 4.432,27.799 -8.023,29.942 Z"  id="path60"/></g><g  id="g62" transform="translate(471.6362,348.8975)"><path d="M 0,0 C 10.79,-5.601 22.113,-9.912 33.849,-12.788 L 30.528,25.17 C 17.356,26.201 4.432,27.799 -8.023,29.942 Z"  id="path64"/></g><g  id="g66" transform="translate(634.2158,382.71)"><path d="M 0,0 -5.756,-21.479 C 5.517,-13.42 16.021,-3.869 25.581,6.962 17.418,4.334 8.857,2.017 0,0"  id="path68"/></g><g  id="g70" transform="translate(634.2158,382.71)"><path d="M 0,0 -5.756,-21.479 C 5.517,-13.42 16.021,-3.869 25.581,6.962 17.418,4.334 8.857,2.017 0,0 Z"  id="path72"/></g><g  id="g74" transform="translate(445.8828,382.3408)"><path d="M 0,0 C -8.746,1.964 -17.169,4.227 -25.186,6.783 -15.757,-3.82 -5.424,-13.188 5.657,-21.11 Z"  id="path76"/></g><g  id="g78" transform="translate(445.8828,382.3408)"><path d="M 0,0 C -8.746,1.964 -17.169,4.227 -25.186,6.783 -15.757,-3.82 -5.424,-13.188 5.657,-21.11 Z"  id="path80"/></g><g  id="g82" transform="translate(567.1162,373.4639)"><path d="m 0,0 c -16.123,-0.948 -32.456,-1.073 -48.584,-0.381 l 3.503,-40.039 c 5.908,-0.738 11.901,-1.121 17.965,-1.121 8.019,0 15.913,0.673 23.652,1.955 z"  id="path84"/></g><g  id="g86" transform="translate(567.1162,373.4639)"><path d="m 0,0 c -16.123,-0.948 -32.456,-1.073 -48.584,-0.381 l 3.503,-40.039 c 5.908,-0.738 11.901,-1.121 17.965,-1.121 8.019,0 15.913,0.673 23.652,1.955 z"  id="path88"/></g><g  id="g90" transform="translate(654.4092,562.5132)"><path d="M 0,0 -114.409,-66.054 -228.818,0 V 132.108 L -114.409,198.163 0,132.108 Z m -32.959,-120.363 c -18.203,0 -32.96,14.757 -32.96,32.96 0,18.202 14.757,32.959 32.96,32.959 18.202,0 32.959,-14.757 32.959,-32.959 0,-18.203 -14.757,-32.96 -32.959,-32.96 m -63.264,-2.944 v -20.697 h -15.475 v 19.705 h -16.736 v 41.928 h 16.736 v -29.511 h 15.475 z m -99.636,2.944 c -18.203,0 -32.959,14.757 -32.959,32.96 0,18.202 14.756,32.959 32.959,32.959 18.203,0 32.959,-14.757 32.959,-32.959 0,-18.203 -14.756,-32.96 -32.959,-32.96 m 81.45,336.551 c -98.611,0 -178.549,-100.015 -178.549,-223.389 0,-59.593 18.653,-113.733 49.051,-153.787 73.487,-12.075 185.309,-12.265 258.845,-0.203 30.488,40.074 49.203,94.297 49.203,153.99 0,123.374 -79.94,223.389 -178.55,223.389"  id="path92"/></g><g  id="g94" transform="translate(654.4092,562.5132)"><path d="M 0,0 -114.409,-66.054 -228.818,0 V 132.108 L -114.409,198.163 0,132.108 Z m -32.959,-120.363 c -18.203,0 -32.96,14.757 -32.96,32.96 0,18.202 14.757,32.959 32.96,32.959 18.202,0 32.959,-14.757 32.959,-32.959 0,-18.203 -14.757,-32.96 -32.959,-32.96 z m -63.264,-2.944 v -20.697 h -15.475 v 19.705 h -16.736 v 41.928 h 16.736 v -29.511 h 15.475 z m -99.636,2.944 c -18.203,0 -32.959,14.757 -32.959,32.96 0,18.202 14.756,32.959 32.959,32.959 18.203,0 32.959,-14.757 32.959,-32.959 0,-18.203 -14.756,-32.96 -32.959,-32.96 z m 81.45,336.551 c -98.611,0 -178.549,-100.015 -178.549,-223.389 0,-59.593 18.653,-113.733 49.051,-153.787 73.487,-12.075 185.309,-12.265 258.845,-0.203 30.488,40.074 49.203,94.297 49.203,153.99 0,123.374 -79.94,223.389 -178.55,223.389 z"  id="path96"/></g><g  id="g98" transform="translate(643.0049,674.0166)"><path d="m 0,0 -21.213,22.134 -69.038,-42.597 2.134,78.536 -29.776,-7.303 2.083,-71.238 -75.312,46.254 -8.563,-29.437 75.873,-40.897 -82.198,-44.525 21.213,-22.134 69.089,42.628 -2.185,-80.393 29.776,7.304 -2.138,73.097 75.367,-46.288 8.563,29.438 -75.873,40.897 z"  id="path100"/></g><g  id="g102" transform="translate(643.0049,674.0166)"><path d="m 0,0 -21.213,22.134 -69.038,-42.597 2.134,78.536 -29.776,-7.303 2.083,-71.238 -75.312,46.254 -8.563,-29.437 75.873,-40.897 -82.198,-44.525 21.213,-22.134 69.089,42.628 -2.185,-80.393 29.776,7.304 -2.138,73.097 75.367,-46.288 8.563,29.438 -75.873,40.897 z"  id="path104"/></g></g></g></g></svg>